<mxfile host="app.diagrams.net" modified="2022-05-05T13:33:23.527Z" agent="5.0 (Windows NT 10.0; Win64; x64) AppleWebKit/537.36 (KHTML, like Gecko) Chrome/100.0.4896.127 Safari/537.36" etag="g2tM8zBSrG-Y4ozWq5A4" version="17.4.6" type="github">
  <diagram id="-AIn9_jZkJaEOOXUaaFC" name="Page-1">
    <mxGraphModel dx="723" dy="402" grid="1" gridSize="10" guides="1" tooltips="1" connect="1" arrows="1" fold="1" page="1" pageScale="1" pageWidth="1169" pageHeight="827" background="#283618" math="0" shadow="0">
      <root>
        <mxCell id="0" />
        <mxCell id="1" parent="0" />
        <mxCell id="oRPkmb5jc26MxPRfLBFK-3" style="edgeStyle=orthogonalEdgeStyle;rounded=1;orthogonalLoop=1;jettySize=auto;html=1;entryX=0;entryY=0.5;entryDx=0;entryDy=0;curved=1;labelBackgroundColor=#283618;strokeColor=#DDA15E;fontColor=#FEFAE0;" edge="1" parent="1" source="oRPkmb5jc26MxPRfLBFK-1" target="oRPkmb5jc26MxPRfLBFK-2">
          <mxGeometry relative="1" as="geometry" />
        </mxCell>
        <mxCell id="oRPkmb5jc26MxPRfLBFK-12" style="edgeStyle=orthogonalEdgeStyle;rounded=1;orthogonalLoop=1;jettySize=auto;html=1;exitX=1;exitY=0.5;exitDx=0;exitDy=0;entryX=0;entryY=0.5;entryDx=0;entryDy=0;curved=1;labelBackgroundColor=#283618;strokeColor=#DDA15E;fontColor=#FEFAE0;" edge="1" parent="1" source="oRPkmb5jc26MxPRfLBFK-1" target="oRPkmb5jc26MxPRfLBFK-9">
          <mxGeometry relative="1" as="geometry" />
        </mxCell>
        <mxCell id="oRPkmb5jc26MxPRfLBFK-13" style="edgeStyle=orthogonalEdgeStyle;rounded=1;orthogonalLoop=1;jettySize=auto;html=1;entryX=0;entryY=0.5;entryDx=0;entryDy=0;curved=1;labelBackgroundColor=#283618;strokeColor=#DDA15E;fontColor=#FEFAE0;" edge="1" parent="1" source="oRPkmb5jc26MxPRfLBFK-1" target="oRPkmb5jc26MxPRfLBFK-10">
          <mxGeometry relative="1" as="geometry" />
        </mxCell>
        <mxCell id="oRPkmb5jc26MxPRfLBFK-14" style="edgeStyle=orthogonalEdgeStyle;rounded=1;orthogonalLoop=1;jettySize=auto;html=1;entryX=0;entryY=0.5;entryDx=0;entryDy=0;curved=1;labelBackgroundColor=#283618;strokeColor=#DDA15E;fontColor=#FEFAE0;" edge="1" parent="1" source="oRPkmb5jc26MxPRfLBFK-1" target="oRPkmb5jc26MxPRfLBFK-11">
          <mxGeometry relative="1" as="geometry" />
        </mxCell>
        <mxCell id="oRPkmb5jc26MxPRfLBFK-69" style="edgeStyle=orthogonalEdgeStyle;rounded=1;orthogonalLoop=1;jettySize=auto;html=1;entryX=0;entryY=0.5;entryDx=0;entryDy=0;curved=1;labelBackgroundColor=#283618;strokeColor=#DDA15E;fontColor=#FEFAE0;" edge="1" parent="1" source="oRPkmb5jc26MxPRfLBFK-1" target="oRPkmb5jc26MxPRfLBFK-4">
          <mxGeometry relative="1" as="geometry" />
        </mxCell>
        <mxCell id="oRPkmb5jc26MxPRfLBFK-70" style="edgeStyle=orthogonalEdgeStyle;rounded=1;orthogonalLoop=1;jettySize=auto;html=1;entryX=0;entryY=0.5;entryDx=0;entryDy=0;curved=1;labelBackgroundColor=#283618;strokeColor=#DDA15E;fontColor=#FEFAE0;" edge="1" parent="1" source="oRPkmb5jc26MxPRfLBFK-1" target="oRPkmb5jc26MxPRfLBFK-6">
          <mxGeometry relative="1" as="geometry" />
        </mxCell>
        <mxCell id="oRPkmb5jc26MxPRfLBFK-1" value="Server" style="whiteSpace=wrap;html=1;aspect=fixed;rounded=1;fillColor=#BC6C25;strokeColor=#DDA15E;fontColor=#FEFAE0;" vertex="1" parent="1">
          <mxGeometry x="30" y="380" width="80" height="80" as="geometry" />
        </mxCell>
        <mxCell id="oRPkmb5jc26MxPRfLBFK-26" style="edgeStyle=orthogonalEdgeStyle;rounded=1;orthogonalLoop=1;jettySize=auto;html=1;entryX=0;entryY=0.5;entryDx=0;entryDy=0;curved=1;labelBackgroundColor=#283618;strokeColor=#DDA15E;fontColor=#FEFAE0;" edge="1" parent="1" source="oRPkmb5jc26MxPRfLBFK-2" target="oRPkmb5jc26MxPRfLBFK-20">
          <mxGeometry relative="1" as="geometry" />
        </mxCell>
        <mxCell id="oRPkmb5jc26MxPRfLBFK-2" value="Auth" style="whiteSpace=wrap;html=1;aspect=fixed;rounded=1;fillColor=#BC6C25;strokeColor=#DDA15E;fontColor=#FEFAE0;" vertex="1" parent="1">
          <mxGeometry x="160" y="40" width="80" height="80" as="geometry" />
        </mxCell>
        <mxCell id="oRPkmb5jc26MxPRfLBFK-64" style="edgeStyle=orthogonalEdgeStyle;rounded=1;orthogonalLoop=1;jettySize=auto;html=1;entryX=0;entryY=0.5;entryDx=0;entryDy=0;curved=1;labelBackgroundColor=#283618;strokeColor=#DDA15E;fontColor=#FEFAE0;" edge="1" parent="1" source="oRPkmb5jc26MxPRfLBFK-4" target="oRPkmb5jc26MxPRfLBFK-48">
          <mxGeometry relative="1" as="geometry">
            <Array as="points">
              <mxPoint x="260" y="320" />
              <mxPoint x="260" y="380" />
            </Array>
          </mxGeometry>
        </mxCell>
        <mxCell id="oRPkmb5jc26MxPRfLBFK-65" style="edgeStyle=orthogonalEdgeStyle;rounded=1;orthogonalLoop=1;jettySize=auto;html=1;entryX=0;entryY=0.5;entryDx=0;entryDy=0;curved=1;labelBackgroundColor=#283618;strokeColor=#DDA15E;fontColor=#FEFAE0;" edge="1" parent="1" source="oRPkmb5jc26MxPRfLBFK-4" target="oRPkmb5jc26MxPRfLBFK-46">
          <mxGeometry relative="1" as="geometry" />
        </mxCell>
        <mxCell id="oRPkmb5jc26MxPRfLBFK-4" value="User" style="whiteSpace=wrap;html=1;aspect=fixed;rounded=1;fillColor=#BC6C25;strokeColor=#DDA15E;fontColor=#FEFAE0;" vertex="1" parent="1">
          <mxGeometry x="160" y="280" width="80" height="80" as="geometry" />
        </mxCell>
        <mxCell id="oRPkmb5jc26MxPRfLBFK-160" style="edgeStyle=orthogonalEdgeStyle;curved=0;rounded=1;sketch=0;orthogonalLoop=1;jettySize=auto;html=1;entryX=0;entryY=0.5;entryDx=0;entryDy=0;labelBackgroundColor=#283618;strokeColor=#DDA15E;fontColor=#FEFAE0;" edge="1" parent="1" source="oRPkmb5jc26MxPRfLBFK-6" target="oRPkmb5jc26MxPRfLBFK-142">
          <mxGeometry relative="1" as="geometry">
            <mxPoint x="270" y="810" as="targetPoint" />
            <Array as="points">
              <mxPoint x="260" y="680" />
              <mxPoint x="260" y="810" />
            </Array>
          </mxGeometry>
        </mxCell>
        <mxCell id="oRPkmb5jc26MxPRfLBFK-190" style="edgeStyle=orthogonalEdgeStyle;curved=0;rounded=1;sketch=0;orthogonalLoop=1;jettySize=auto;html=1;entryX=0;entryY=0.5;entryDx=0;entryDy=0;labelBackgroundColor=#283618;strokeColor=#DDA15E;fontColor=#FEFAE0;" edge="1" parent="1" source="oRPkmb5jc26MxPRfLBFK-6" target="oRPkmb5jc26MxPRfLBFK-106">
          <mxGeometry relative="1" as="geometry">
            <Array as="points">
              <mxPoint x="259" y="680" />
              <mxPoint x="259" y="560" />
            </Array>
          </mxGeometry>
        </mxCell>
        <mxCell id="oRPkmb5jc26MxPRfLBFK-192" style="edgeStyle=orthogonalEdgeStyle;curved=0;rounded=1;sketch=0;orthogonalLoop=1;jettySize=auto;html=1;entryX=0;entryY=0.5;entryDx=0;entryDy=0;labelBackgroundColor=#283618;strokeColor=#DDA15E;fontColor=#FEFAE0;" edge="1" parent="1" source="oRPkmb5jc26MxPRfLBFK-6" target="oRPkmb5jc26MxPRfLBFK-110">
          <mxGeometry relative="1" as="geometry" />
        </mxCell>
        <mxCell id="oRPkmb5jc26MxPRfLBFK-198" style="edgeStyle=orthogonalEdgeStyle;curved=0;rounded=1;sketch=0;orthogonalLoop=1;jettySize=auto;html=1;entryX=0;entryY=0.5;entryDx=0;entryDy=0;labelBackgroundColor=#283618;strokeColor=#DDA15E;fontColor=#FEFAE0;" edge="1" parent="1" source="oRPkmb5jc26MxPRfLBFK-6" target="oRPkmb5jc26MxPRfLBFK-194">
          <mxGeometry relative="1" as="geometry" />
        </mxCell>
        <mxCell id="oRPkmb5jc26MxPRfLBFK-6" value="Post" style="whiteSpace=wrap;html=1;aspect=fixed;rounded=1;fillColor=#BC6C25;strokeColor=#DDA15E;fontColor=#FEFAE0;" vertex="1" parent="1">
          <mxGeometry x="160" y="640" width="80" height="80" as="geometry" />
        </mxCell>
        <mxCell id="oRPkmb5jc26MxPRfLBFK-205" style="edgeStyle=orthogonalEdgeStyle;curved=0;rounded=1;sketch=0;orthogonalLoop=1;jettySize=auto;html=1;entryX=0;entryY=0.5;entryDx=0;entryDy=0;labelBackgroundColor=#283618;strokeColor=#DDA15E;fontColor=#FEFAE0;" edge="1" parent="1" source="oRPkmb5jc26MxPRfLBFK-9" target="oRPkmb5jc26MxPRfLBFK-167">
          <mxGeometry relative="1" as="geometry" />
        </mxCell>
        <mxCell id="oRPkmb5jc26MxPRfLBFK-206" style="edgeStyle=orthogonalEdgeStyle;curved=0;rounded=1;sketch=0;orthogonalLoop=1;jettySize=auto;html=1;labelBackgroundColor=#283618;strokeColor=#DDA15E;fontColor=#FEFAE0;" edge="1" parent="1" source="oRPkmb5jc26MxPRfLBFK-9" target="oRPkmb5jc26MxPRfLBFK-171">
          <mxGeometry relative="1" as="geometry" />
        </mxCell>
        <mxCell id="oRPkmb5jc26MxPRfLBFK-207" style="edgeStyle=orthogonalEdgeStyle;curved=0;rounded=1;sketch=0;orthogonalLoop=1;jettySize=auto;html=1;entryX=0;entryY=0.5;entryDx=0;entryDy=0;labelBackgroundColor=#283618;strokeColor=#DDA15E;fontColor=#FEFAE0;" edge="1" parent="1" source="oRPkmb5jc26MxPRfLBFK-9" target="oRPkmb5jc26MxPRfLBFK-201">
          <mxGeometry relative="1" as="geometry" />
        </mxCell>
        <mxCell id="oRPkmb5jc26MxPRfLBFK-9" value="Comment" style="whiteSpace=wrap;html=1;aspect=fixed;rounded=1;fillColor=#BC6C25;strokeColor=#DDA15E;fontColor=#FEFAE0;" vertex="1" parent="1">
          <mxGeometry x="160" y="1090" width="80" height="80" as="geometry" />
        </mxCell>
        <mxCell id="oRPkmb5jc26MxPRfLBFK-234" style="edgeStyle=orthogonalEdgeStyle;curved=0;rounded=1;sketch=0;orthogonalLoop=1;jettySize=auto;html=1;entryX=0;entryY=0.5;entryDx=0;entryDy=0;fontColor=#FEFAE0;strokeColor=#DDA15E;fillColor=#BC6C25;" edge="1" parent="1" source="oRPkmb5jc26MxPRfLBFK-10" target="oRPkmb5jc26MxPRfLBFK-209">
          <mxGeometry relative="1" as="geometry" />
        </mxCell>
        <mxCell id="oRPkmb5jc26MxPRfLBFK-235" style="edgeStyle=orthogonalEdgeStyle;curved=0;rounded=1;sketch=0;orthogonalLoop=1;jettySize=auto;html=1;fontColor=#FEFAE0;strokeColor=#DDA15E;fillColor=#BC6C25;" edge="1" parent="1" source="oRPkmb5jc26MxPRfLBFK-10">
          <mxGeometry relative="1" as="geometry">
            <mxPoint x="280" y="1380.0000000000002" as="targetPoint" />
          </mxGeometry>
        </mxCell>
        <mxCell id="oRPkmb5jc26MxPRfLBFK-236" style="edgeStyle=orthogonalEdgeStyle;curved=0;rounded=1;sketch=0;orthogonalLoop=1;jettySize=auto;html=1;fontColor=#FEFAE0;strokeColor=#DDA15E;fillColor=#BC6C25;" edge="1" parent="1" source="oRPkmb5jc26MxPRfLBFK-10">
          <mxGeometry relative="1" as="geometry">
            <mxPoint x="280" y="1420.0000000000002" as="targetPoint" />
          </mxGeometry>
        </mxCell>
        <mxCell id="oRPkmb5jc26MxPRfLBFK-237" style="edgeStyle=orthogonalEdgeStyle;curved=0;rounded=1;sketch=0;orthogonalLoop=1;jettySize=auto;html=1;entryX=0;entryY=0.5;entryDx=0;entryDy=0;fontColor=#FEFAE0;strokeColor=#DDA15E;fillColor=#BC6C25;" edge="1" parent="1" source="oRPkmb5jc26MxPRfLBFK-10" target="oRPkmb5jc26MxPRfLBFK-225">
          <mxGeometry relative="1" as="geometry">
            <Array as="points">
              <mxPoint x="258" y="1410" />
              <mxPoint x="258" y="1480" />
            </Array>
          </mxGeometry>
        </mxCell>
        <mxCell id="oRPkmb5jc26MxPRfLBFK-10" value="Notify" style="whiteSpace=wrap;html=1;aspect=fixed;rounded=1;fillColor=#BC6C25;strokeColor=#DDA15E;fontColor=#FEFAE0;" vertex="1" parent="1">
          <mxGeometry x="160" y="1370" width="80" height="80" as="geometry" />
        </mxCell>
        <mxCell id="oRPkmb5jc26MxPRfLBFK-261" style="edgeStyle=orthogonalEdgeStyle;curved=0;rounded=1;sketch=0;orthogonalLoop=1;jettySize=auto;html=1;entryX=0;entryY=0.5;entryDx=0;entryDy=0;fontColor=#FEFAE0;strokeColor=#DDA15E;fillColor=#BC6C25;" edge="1" parent="1" source="oRPkmb5jc26MxPRfLBFK-11" target="oRPkmb5jc26MxPRfLBFK-240">
          <mxGeometry relative="1" as="geometry">
            <Array as="points">
              <mxPoint x="258" y="1700" />
              <mxPoint x="258" y="1630" />
            </Array>
          </mxGeometry>
        </mxCell>
        <mxCell id="oRPkmb5jc26MxPRfLBFK-262" style="edgeStyle=orthogonalEdgeStyle;curved=0;rounded=1;sketch=0;orthogonalLoop=1;jettySize=auto;html=1;entryX=0;entryY=0.5;entryDx=0;entryDy=0;fontColor=#FEFAE0;strokeColor=#DDA15E;fillColor=#BC6C25;" edge="1" parent="1" source="oRPkmb5jc26MxPRfLBFK-11" target="oRPkmb5jc26MxPRfLBFK-248">
          <mxGeometry relative="1" as="geometry" />
        </mxCell>
        <mxCell id="oRPkmb5jc26MxPRfLBFK-263" style="edgeStyle=orthogonalEdgeStyle;curved=0;rounded=1;sketch=0;orthogonalLoop=1;jettySize=auto;html=1;entryX=0;entryY=0.5;entryDx=0;entryDy=0;fontColor=#FEFAE0;strokeColor=#DDA15E;fillColor=#BC6C25;" edge="1" parent="1" source="oRPkmb5jc26MxPRfLBFK-11" target="oRPkmb5jc26MxPRfLBFK-254">
          <mxGeometry relative="1" as="geometry">
            <Array as="points">
              <mxPoint x="258" y="1700" />
              <mxPoint x="258" y="1770" />
            </Array>
          </mxGeometry>
        </mxCell>
        <mxCell id="oRPkmb5jc26MxPRfLBFK-11" value="Message" style="whiteSpace=wrap;html=1;aspect=fixed;rounded=1;fillColor=#BC6C25;strokeColor=#DDA15E;fontColor=#FEFAE0;" vertex="1" parent="1">
          <mxGeometry x="160" y="1660" width="80" height="80" as="geometry" />
        </mxCell>
        <mxCell id="oRPkmb5jc26MxPRfLBFK-34" style="edgeStyle=orthogonalEdgeStyle;rounded=1;orthogonalLoop=1;jettySize=auto;html=1;entryX=0;entryY=0.5;entryDx=0;entryDy=0;curved=1;labelBackgroundColor=#283618;strokeColor=#DDA15E;fontColor=#FEFAE0;" edge="1" parent="1" source="oRPkmb5jc26MxPRfLBFK-20" target="oRPkmb5jc26MxPRfLBFK-33">
          <mxGeometry relative="1" as="geometry" />
        </mxCell>
        <mxCell id="oRPkmb5jc26MxPRfLBFK-90" style="edgeStyle=orthogonalEdgeStyle;curved=0;rounded=1;sketch=0;orthogonalLoop=1;jettySize=auto;html=1;entryX=0;entryY=0.5;entryDx=0;entryDy=0;labelBackgroundColor=#283618;strokeColor=#DDA15E;fontColor=#FEFAE0;" edge="1" parent="1" source="oRPkmb5jc26MxPRfLBFK-20" target="oRPkmb5jc26MxPRfLBFK-31">
          <mxGeometry relative="1" as="geometry" />
        </mxCell>
        <mxCell id="oRPkmb5jc26MxPRfLBFK-91" style="edgeStyle=orthogonalEdgeStyle;curved=0;rounded=1;sketch=0;orthogonalLoop=1;jettySize=auto;html=1;entryX=0;entryY=0.5;entryDx=0;entryDy=0;labelBackgroundColor=#283618;strokeColor=#DDA15E;fontColor=#FEFAE0;" edge="1" parent="1" source="oRPkmb5jc26MxPRfLBFK-20" target="oRPkmb5jc26MxPRfLBFK-28">
          <mxGeometry relative="1" as="geometry" />
        </mxCell>
        <mxCell id="oRPkmb5jc26MxPRfLBFK-92" style="edgeStyle=orthogonalEdgeStyle;curved=0;rounded=1;sketch=0;orthogonalLoop=1;jettySize=auto;html=1;entryX=0;entryY=0.5;entryDx=0;entryDy=0;labelBackgroundColor=#283618;strokeColor=#DDA15E;fontColor=#FEFAE0;" edge="1" parent="1" source="oRPkmb5jc26MxPRfLBFK-20" target="oRPkmb5jc26MxPRfLBFK-35">
          <mxGeometry relative="1" as="geometry" />
        </mxCell>
        <mxCell id="oRPkmb5jc26MxPRfLBFK-20" value="POST" style="rounded=1;whiteSpace=wrap;html=1;fillColor=#BC6C25;strokeColor=#DDA15E;fontColor=#FEFAE0;" vertex="1" parent="1">
          <mxGeometry x="277.5" y="70" width="80" height="20" as="geometry" />
        </mxCell>
        <mxCell id="oRPkmb5jc26MxPRfLBFK-38" style="edgeStyle=orthogonalEdgeStyle;rounded=1;orthogonalLoop=1;jettySize=auto;html=1;curved=1;labelBackgroundColor=#283618;strokeColor=#DDA15E;fontColor=#FEFAE0;" edge="1" parent="1" source="oRPkmb5jc26MxPRfLBFK-28" target="oRPkmb5jc26MxPRfLBFK-37">
          <mxGeometry relative="1" as="geometry" />
        </mxCell>
        <mxCell id="oRPkmb5jc26MxPRfLBFK-28" value="/register" style="rounded=1;whiteSpace=wrap;html=1;fillColor=#BC6C25;strokeColor=#DDA15E;fontColor=#FEFAE0;" vertex="1" parent="1">
          <mxGeometry x="401.25" y="10" width="80" height="20" as="geometry" />
        </mxCell>
        <mxCell id="oRPkmb5jc26MxPRfLBFK-42" style="edgeStyle=orthogonalEdgeStyle;rounded=1;orthogonalLoop=1;jettySize=auto;html=1;curved=1;labelBackgroundColor=#283618;strokeColor=#DDA15E;fontColor=#FEFAE0;" edge="1" parent="1" source="oRPkmb5jc26MxPRfLBFK-31" target="oRPkmb5jc26MxPRfLBFK-39">
          <mxGeometry relative="1" as="geometry" />
        </mxCell>
        <mxCell id="oRPkmb5jc26MxPRfLBFK-31" value="/login" style="rounded=1;whiteSpace=wrap;html=1;fillColor=#BC6C25;strokeColor=#DDA15E;fontColor=#FEFAE0;" vertex="1" parent="1">
          <mxGeometry x="401.25" y="50" width="80" height="20" as="geometry" />
        </mxCell>
        <mxCell id="oRPkmb5jc26MxPRfLBFK-43" style="edgeStyle=orthogonalEdgeStyle;rounded=1;orthogonalLoop=1;jettySize=auto;html=1;curved=1;labelBackgroundColor=#283618;strokeColor=#DDA15E;fontColor=#FEFAE0;" edge="1" parent="1" source="oRPkmb5jc26MxPRfLBFK-33" target="oRPkmb5jc26MxPRfLBFK-40">
          <mxGeometry relative="1" as="geometry" />
        </mxCell>
        <mxCell id="oRPkmb5jc26MxPRfLBFK-33" value="/logout" style="rounded=1;whiteSpace=wrap;html=1;fillColor=#BC6C25;strokeColor=#DDA15E;fontColor=#FEFAE0;" vertex="1" parent="1">
          <mxGeometry x="401.25" y="90" width="80" height="20" as="geometry" />
        </mxCell>
        <mxCell id="oRPkmb5jc26MxPRfLBFK-44" style="edgeStyle=orthogonalEdgeStyle;rounded=1;orthogonalLoop=1;jettySize=auto;html=1;curved=1;labelBackgroundColor=#283618;strokeColor=#DDA15E;fontColor=#FEFAE0;" edge="1" parent="1" source="oRPkmb5jc26MxPRfLBFK-35" target="oRPkmb5jc26MxPRfLBFK-41">
          <mxGeometry relative="1" as="geometry" />
        </mxCell>
        <mxCell id="oRPkmb5jc26MxPRfLBFK-35" value="/refresh_token" style="rounded=1;whiteSpace=wrap;html=1;fillColor=#BC6C25;strokeColor=#DDA15E;fontColor=#FEFAE0;" vertex="1" parent="1">
          <mxGeometry x="401.25" y="130" width="80" height="20" as="geometry" />
        </mxCell>
        <mxCell id="oRPkmb5jc26MxPRfLBFK-37" value="register" style="rounded=1;whiteSpace=wrap;html=1;fillColor=#BC6C25;strokeColor=#DDA15E;fontColor=#FEFAE0;" vertex="1" parent="1">
          <mxGeometry x="506.25" y="10" width="80" height="20" as="geometry" />
        </mxCell>
        <mxCell id="oRPkmb5jc26MxPRfLBFK-39" value="login" style="rounded=1;whiteSpace=wrap;html=1;fillColor=#BC6C25;strokeColor=#DDA15E;fontColor=#FEFAE0;" vertex="1" parent="1">
          <mxGeometry x="506.25" y="50" width="80" height="20" as="geometry" />
        </mxCell>
        <mxCell id="oRPkmb5jc26MxPRfLBFK-40" value="logout" style="rounded=1;whiteSpace=wrap;html=1;fillColor=#BC6C25;strokeColor=#DDA15E;fontColor=#FEFAE0;" vertex="1" parent="1">
          <mxGeometry x="506.25" y="90" width="80" height="20" as="geometry" />
        </mxCell>
        <mxCell id="oRPkmb5jc26MxPRfLBFK-41" value="generateAccessToken" style="rounded=1;whiteSpace=wrap;html=1;fillColor=#BC6C25;strokeColor=#DDA15E;fontColor=#FEFAE0;" vertex="1" parent="1">
          <mxGeometry x="506.25" y="130" width="130" height="20" as="geometry" />
        </mxCell>
        <mxCell id="oRPkmb5jc26MxPRfLBFK-77" style="edgeStyle=orthogonalEdgeStyle;rounded=1;orthogonalLoop=1;jettySize=auto;html=1;curved=1;labelBackgroundColor=#283618;strokeColor=#DDA15E;fontColor=#FEFAE0;" edge="1" parent="1" source="oRPkmb5jc26MxPRfLBFK-46" target="oRPkmb5jc26MxPRfLBFK-50">
          <mxGeometry relative="1" as="geometry" />
        </mxCell>
        <mxCell id="oRPkmb5jc26MxPRfLBFK-99" style="edgeStyle=orthogonalEdgeStyle;curved=0;rounded=1;sketch=0;orthogonalLoop=1;jettySize=auto;html=1;entryX=0;entryY=0.5;entryDx=0;entryDy=0;labelBackgroundColor=#283618;strokeColor=#DDA15E;fontColor=#FEFAE0;" edge="1" parent="1" source="oRPkmb5jc26MxPRfLBFK-46" target="oRPkmb5jc26MxPRfLBFK-49">
          <mxGeometry relative="1" as="geometry" />
        </mxCell>
        <mxCell id="oRPkmb5jc26MxPRfLBFK-100" style="edgeStyle=orthogonalEdgeStyle;curved=0;rounded=1;sketch=0;orthogonalLoop=1;jettySize=auto;html=1;entryX=0;entryY=0.5;entryDx=0;entryDy=0;labelBackgroundColor=#283618;strokeColor=#DDA15E;fontColor=#FEFAE0;" edge="1" parent="1" source="oRPkmb5jc26MxPRfLBFK-46" target="oRPkmb5jc26MxPRfLBFK-60">
          <mxGeometry relative="1" as="geometry" />
        </mxCell>
        <mxCell id="oRPkmb5jc26MxPRfLBFK-46" value="GET" style="rounded=1;whiteSpace=wrap;html=1;fillColor=#BC6C25;strokeColor=#DDA15E;fontColor=#FEFAE0;" vertex="1" parent="1">
          <mxGeometry x="277.5" y="250" width="80" height="20" as="geometry" />
        </mxCell>
        <mxCell id="oRPkmb5jc26MxPRfLBFK-82" style="edgeStyle=orthogonalEdgeStyle;rounded=1;orthogonalLoop=1;jettySize=auto;html=1;entryX=0;entryY=0.5;entryDx=0;entryDy=0;curved=1;labelBackgroundColor=#283618;strokeColor=#DDA15E;fontColor=#FEFAE0;" edge="1" parent="1" source="oRPkmb5jc26MxPRfLBFK-48" target="oRPkmb5jc26MxPRfLBFK-52">
          <mxGeometry relative="1" as="geometry" />
        </mxCell>
        <mxCell id="oRPkmb5jc26MxPRfLBFK-101" style="edgeStyle=orthogonalEdgeStyle;curved=0;rounded=1;sketch=0;orthogonalLoop=1;jettySize=auto;html=1;entryX=0;entryY=0.5;entryDx=0;entryDy=0;labelBackgroundColor=#283618;strokeColor=#DDA15E;fontColor=#FEFAE0;" edge="1" parent="1" source="oRPkmb5jc26MxPRfLBFK-48" target="oRPkmb5jc26MxPRfLBFK-59">
          <mxGeometry relative="1" as="geometry" />
        </mxCell>
        <mxCell id="oRPkmb5jc26MxPRfLBFK-102" style="edgeStyle=orthogonalEdgeStyle;curved=0;rounded=1;sketch=0;orthogonalLoop=1;jettySize=auto;html=1;entryX=0;entryY=0.5;entryDx=0;entryDy=0;labelBackgroundColor=#283618;strokeColor=#DDA15E;fontColor=#FEFAE0;" edge="1" parent="1" source="oRPkmb5jc26MxPRfLBFK-48" target="oRPkmb5jc26MxPRfLBFK-51">
          <mxGeometry relative="1" as="geometry" />
        </mxCell>
        <mxCell id="oRPkmb5jc26MxPRfLBFK-48" value="PATCH" style="rounded=1;whiteSpace=wrap;html=1;fillColor=#BC6C25;strokeColor=#DDA15E;fontColor=#FEFAE0;" vertex="1" parent="1">
          <mxGeometry x="277.5" y="370" width="80" height="20" as="geometry" />
        </mxCell>
        <mxCell id="oRPkmb5jc26MxPRfLBFK-72" style="edgeStyle=orthogonalEdgeStyle;rounded=1;orthogonalLoop=1;jettySize=auto;html=1;exitX=1;exitY=0.5;exitDx=0;exitDy=0;entryX=0;entryY=0.5;entryDx=0;entryDy=0;curved=1;labelBackgroundColor=#283618;strokeColor=#DDA15E;fontColor=#FEFAE0;" edge="1" parent="1" source="oRPkmb5jc26MxPRfLBFK-49" target="oRPkmb5jc26MxPRfLBFK-53">
          <mxGeometry relative="1" as="geometry" />
        </mxCell>
        <mxCell id="oRPkmb5jc26MxPRfLBFK-49" value="/search" style="rounded=1;whiteSpace=wrap;html=1;fillColor=#BC6C25;strokeColor=#DDA15E;fontColor=#FEFAE0;" vertex="1" parent="1">
          <mxGeometry x="401.25" y="210" width="80" height="20" as="geometry" />
        </mxCell>
        <mxCell id="oRPkmb5jc26MxPRfLBFK-79" style="edgeStyle=orthogonalEdgeStyle;rounded=1;orthogonalLoop=1;jettySize=auto;html=1;entryX=0;entryY=0.5;entryDx=0;entryDy=0;curved=1;labelBackgroundColor=#283618;strokeColor=#DDA15E;fontColor=#FEFAE0;" edge="1" parent="1" source="oRPkmb5jc26MxPRfLBFK-50" target="oRPkmb5jc26MxPRfLBFK-54">
          <mxGeometry relative="1" as="geometry" />
        </mxCell>
        <mxCell id="oRPkmb5jc26MxPRfLBFK-50" value="/user/:id" style="rounded=1;whiteSpace=wrap;html=1;fillColor=#BC6C25;strokeColor=#DDA15E;fontColor=#FEFAE0;" vertex="1" parent="1">
          <mxGeometry x="401.25" y="250" width="80" height="20" as="geometry" />
        </mxCell>
        <mxCell id="oRPkmb5jc26MxPRfLBFK-81" style="edgeStyle=orthogonalEdgeStyle;rounded=1;orthogonalLoop=1;jettySize=auto;html=1;entryX=0;entryY=0.5;entryDx=0;entryDy=0;curved=1;labelBackgroundColor=#283618;strokeColor=#DDA15E;fontColor=#FEFAE0;" edge="1" parent="1" source="oRPkmb5jc26MxPRfLBFK-51" target="oRPkmb5jc26MxPRfLBFK-55">
          <mxGeometry relative="1" as="geometry" />
        </mxCell>
        <mxCell id="oRPkmb5jc26MxPRfLBFK-51" value="/user" style="rounded=1;whiteSpace=wrap;html=1;fillColor=#BC6C25;strokeColor=#DDA15E;fontColor=#FEFAE0;" vertex="1" parent="1">
          <mxGeometry x="401.25" y="330" width="80" height="20" as="geometry" />
        </mxCell>
        <mxCell id="oRPkmb5jc26MxPRfLBFK-84" style="edgeStyle=orthogonalEdgeStyle;rounded=1;orthogonalLoop=1;jettySize=auto;html=1;entryX=0;entryY=0.5;entryDx=0;entryDy=0;curved=1;labelBackgroundColor=#283618;strokeColor=#DDA15E;fontColor=#FEFAE0;" edge="1" parent="1" source="oRPkmb5jc26MxPRfLBFK-52" target="oRPkmb5jc26MxPRfLBFK-56">
          <mxGeometry relative="1" as="geometry" />
        </mxCell>
        <mxCell id="oRPkmb5jc26MxPRfLBFK-52" value="/user/:id/follow" style="rounded=1;whiteSpace=wrap;html=1;fillColor=#BC6C25;strokeColor=#DDA15E;fontColor=#FEFAE0;" vertex="1" parent="1">
          <mxGeometry x="401.25" y="370" width="105" height="20" as="geometry" />
        </mxCell>
        <mxCell id="oRPkmb5jc26MxPRfLBFK-53" value="search" style="rounded=1;whiteSpace=wrap;html=1;fillColor=#BC6C25;strokeColor=#DDA15E;fontColor=#FEFAE0;" vertex="1" parent="1">
          <mxGeometry x="506.25" y="210" width="80" height="20" as="geometry" />
        </mxCell>
        <mxCell id="oRPkmb5jc26MxPRfLBFK-54" value="getUser" style="rounded=1;whiteSpace=wrap;html=1;fillColor=#BC6C25;strokeColor=#DDA15E;fontColor=#FEFAE0;" vertex="1" parent="1">
          <mxGeometry x="506.25" y="250" width="80" height="20" as="geometry" />
        </mxCell>
        <mxCell id="oRPkmb5jc26MxPRfLBFK-55" value="updateUser" style="rounded=1;whiteSpace=wrap;html=1;fillColor=#BC6C25;strokeColor=#DDA15E;fontColor=#FEFAE0;" vertex="1" parent="1">
          <mxGeometry x="506.25" y="330" width="80" height="20" as="geometry" />
        </mxCell>
        <mxCell id="oRPkmb5jc26MxPRfLBFK-56" value="follow" style="rounded=1;whiteSpace=wrap;html=1;fillColor=#BC6C25;strokeColor=#DDA15E;fontColor=#FEFAE0;" vertex="1" parent="1">
          <mxGeometry x="531.25" y="370" width="85" height="20" as="geometry" />
        </mxCell>
        <mxCell id="oRPkmb5jc26MxPRfLBFK-86" style="edgeStyle=orthogonalEdgeStyle;rounded=1;orthogonalLoop=1;jettySize=auto;html=1;entryX=0;entryY=0.5;entryDx=0;entryDy=0;curved=1;labelBackgroundColor=#283618;strokeColor=#DDA15E;fontColor=#FEFAE0;" edge="1" parent="1" source="oRPkmb5jc26MxPRfLBFK-59" target="oRPkmb5jc26MxPRfLBFK-61">
          <mxGeometry relative="1" as="geometry" />
        </mxCell>
        <mxCell id="oRPkmb5jc26MxPRfLBFK-59" value="/user/:id/unfollow" style="rounded=1;whiteSpace=wrap;html=1;fillColor=#BC6C25;strokeColor=#DDA15E;fontColor=#FEFAE0;" vertex="1" parent="1">
          <mxGeometry x="401.25" y="410" width="105" height="20" as="geometry" />
        </mxCell>
        <mxCell id="oRPkmb5jc26MxPRfLBFK-88" style="edgeStyle=orthogonalEdgeStyle;rounded=1;orthogonalLoop=1;jettySize=auto;html=1;entryX=0;entryY=0.5;entryDx=0;entryDy=0;curved=1;labelBackgroundColor=#283618;strokeColor=#DDA15E;fontColor=#FEFAE0;" edge="1" parent="1" source="oRPkmb5jc26MxPRfLBFK-60" target="oRPkmb5jc26MxPRfLBFK-62">
          <mxGeometry relative="1" as="geometry" />
        </mxCell>
        <mxCell id="oRPkmb5jc26MxPRfLBFK-60" value="/suggestionUser" style="rounded=1;whiteSpace=wrap;html=1;fillColor=#BC6C25;strokeColor=#DDA15E;fontColor=#FEFAE0;" vertex="1" parent="1">
          <mxGeometry x="401.25" y="290" width="105" height="20" as="geometry" />
        </mxCell>
        <mxCell id="oRPkmb5jc26MxPRfLBFK-61" value="unfollow" style="rounded=1;whiteSpace=wrap;html=1;fillColor=#BC6C25;strokeColor=#DDA15E;fontColor=#FEFAE0;" vertex="1" parent="1">
          <mxGeometry x="531.25" y="410" width="85" height="20" as="geometry" />
        </mxCell>
        <mxCell id="oRPkmb5jc26MxPRfLBFK-62" value="suggestionUser" style="rounded=1;whiteSpace=wrap;html=1;fillColor=#BC6C25;strokeColor=#DDA15E;fontColor=#FEFAE0;" vertex="1" parent="1">
          <mxGeometry x="531.25" y="290" width="95" height="20" as="geometry" />
        </mxCell>
        <mxCell id="oRPkmb5jc26MxPRfLBFK-103" style="edgeStyle=orthogonalEdgeStyle;rounded=1;orthogonalLoop=1;jettySize=auto;html=1;curved=1;labelBackgroundColor=#283618;strokeColor=#DDA15E;fontColor=#FEFAE0;" edge="1" parent="1" source="oRPkmb5jc26MxPRfLBFK-106" target="oRPkmb5jc26MxPRfLBFK-114">
          <mxGeometry relative="1" as="geometry" />
        </mxCell>
        <mxCell id="oRPkmb5jc26MxPRfLBFK-104" style="edgeStyle=orthogonalEdgeStyle;curved=0;rounded=1;sketch=0;orthogonalLoop=1;jettySize=auto;html=1;entryX=0;entryY=0.5;entryDx=0;entryDy=0;labelBackgroundColor=#283618;strokeColor=#DDA15E;fontColor=#FEFAE0;" edge="1" parent="1" source="oRPkmb5jc26MxPRfLBFK-106" target="oRPkmb5jc26MxPRfLBFK-112">
          <mxGeometry relative="1" as="geometry" />
        </mxCell>
        <mxCell id="oRPkmb5jc26MxPRfLBFK-105" style="edgeStyle=orthogonalEdgeStyle;curved=0;rounded=1;sketch=0;orthogonalLoop=1;jettySize=auto;html=1;entryX=0;entryY=0.5;entryDx=0;entryDy=0;labelBackgroundColor=#283618;strokeColor=#DDA15E;fontColor=#FEFAE0;" edge="1" parent="1" source="oRPkmb5jc26MxPRfLBFK-106" target="oRPkmb5jc26MxPRfLBFK-126">
          <mxGeometry relative="1" as="geometry" />
        </mxCell>
        <mxCell id="oRPkmb5jc26MxPRfLBFK-106" value="GET" style="rounded=1;whiteSpace=wrap;html=1;fillColor=#BC6C25;strokeColor=#DDA15E;fontColor=#FEFAE0;" vertex="1" parent="1">
          <mxGeometry x="278.75" y="550" width="80" height="20" as="geometry" />
        </mxCell>
        <mxCell id="oRPkmb5jc26MxPRfLBFK-107" style="edgeStyle=orthogonalEdgeStyle;rounded=1;orthogonalLoop=1;jettySize=auto;html=1;entryX=0;entryY=0.5;entryDx=0;entryDy=0;curved=1;labelBackgroundColor=#283618;strokeColor=#DDA15E;fontColor=#FEFAE0;" edge="1" parent="1" source="oRPkmb5jc26MxPRfLBFK-110" target="oRPkmb5jc26MxPRfLBFK-118">
          <mxGeometry relative="1" as="geometry" />
        </mxCell>
        <mxCell id="oRPkmb5jc26MxPRfLBFK-110" value="POST" style="rounded=1;whiteSpace=wrap;html=1;fillColor=#BC6C25;strokeColor=#DDA15E;fontColor=#FEFAE0;" vertex="1" parent="1">
          <mxGeometry x="278.75" y="720" width="80" height="20" as="geometry" />
        </mxCell>
        <mxCell id="oRPkmb5jc26MxPRfLBFK-111" style="edgeStyle=orthogonalEdgeStyle;rounded=1;orthogonalLoop=1;jettySize=auto;html=1;exitX=1;exitY=0.5;exitDx=0;exitDy=0;entryX=0;entryY=0.5;entryDx=0;entryDy=0;curved=1;labelBackgroundColor=#283618;strokeColor=#DDA15E;fontColor=#FEFAE0;" edge="1" parent="1" source="oRPkmb5jc26MxPRfLBFK-112" target="oRPkmb5jc26MxPRfLBFK-119">
          <mxGeometry relative="1" as="geometry" />
        </mxCell>
        <mxCell id="oRPkmb5jc26MxPRfLBFK-112" value="/posts" style="rounded=1;whiteSpace=wrap;html=1;fillColor=#BC6C25;strokeColor=#DDA15E;fontColor=#FEFAE0;" vertex="1" parent="1">
          <mxGeometry x="401.25" y="510" width="80" height="20" as="geometry" />
        </mxCell>
        <mxCell id="oRPkmb5jc26MxPRfLBFK-113" style="edgeStyle=orthogonalEdgeStyle;rounded=1;orthogonalLoop=1;jettySize=auto;html=1;entryX=0;entryY=0.5;entryDx=0;entryDy=0;curved=1;labelBackgroundColor=#283618;strokeColor=#DDA15E;fontColor=#FEFAE0;" edge="1" parent="1" source="oRPkmb5jc26MxPRfLBFK-114" target="oRPkmb5jc26MxPRfLBFK-120">
          <mxGeometry relative="1" as="geometry" />
        </mxCell>
        <mxCell id="oRPkmb5jc26MxPRfLBFK-114" value="/post/:id" style="rounded=1;whiteSpace=wrap;html=1;fillColor=#BC6C25;strokeColor=#DDA15E;fontColor=#FEFAE0;" vertex="1" parent="1">
          <mxGeometry x="401.25" y="550" width="80" height="20" as="geometry" />
        </mxCell>
        <mxCell id="oRPkmb5jc26MxPRfLBFK-117" style="edgeStyle=orthogonalEdgeStyle;rounded=1;orthogonalLoop=1;jettySize=auto;html=1;entryX=0;entryY=0.5;entryDx=0;entryDy=0;curved=1;labelBackgroundColor=#283618;strokeColor=#DDA15E;fontColor=#FEFAE0;" edge="1" parent="1" source="oRPkmb5jc26MxPRfLBFK-118" target="oRPkmb5jc26MxPRfLBFK-122">
          <mxGeometry relative="1" as="geometry" />
        </mxCell>
        <mxCell id="oRPkmb5jc26MxPRfLBFK-118" value="/posts" style="rounded=1;whiteSpace=wrap;html=1;fillColor=#BC6C25;strokeColor=#DDA15E;fontColor=#FEFAE0;" vertex="1" parent="1">
          <mxGeometry x="401.25" y="720" width="80" height="20" as="geometry" />
        </mxCell>
        <mxCell id="oRPkmb5jc26MxPRfLBFK-119" value="getPosts" style="rounded=1;whiteSpace=wrap;html=1;fillColor=#BC6C25;strokeColor=#DDA15E;fontColor=#FEFAE0;" vertex="1" parent="1">
          <mxGeometry x="506.25" y="510" width="80" height="20" as="geometry" />
        </mxCell>
        <mxCell id="oRPkmb5jc26MxPRfLBFK-120" value="getPost" style="rounded=1;whiteSpace=wrap;html=1;fillColor=#BC6C25;strokeColor=#DDA15E;fontColor=#FEFAE0;" vertex="1" parent="1">
          <mxGeometry x="506.25" y="550" width="80" height="20" as="geometry" />
        </mxCell>
        <mxCell id="oRPkmb5jc26MxPRfLBFK-122" value="createPosts" style="rounded=1;whiteSpace=wrap;html=1;fillColor=#BC6C25;strokeColor=#DDA15E;fontColor=#FEFAE0;" vertex="1" parent="1">
          <mxGeometry x="505" y="720" width="85" height="20" as="geometry" />
        </mxCell>
        <mxCell id="oRPkmb5jc26MxPRfLBFK-125" style="edgeStyle=orthogonalEdgeStyle;rounded=1;orthogonalLoop=1;jettySize=auto;html=1;entryX=0;entryY=0.5;entryDx=0;entryDy=0;curved=1;labelBackgroundColor=#283618;strokeColor=#DDA15E;fontColor=#FEFAE0;" edge="1" parent="1" source="oRPkmb5jc26MxPRfLBFK-126" target="oRPkmb5jc26MxPRfLBFK-128">
          <mxGeometry relative="1" as="geometry" />
        </mxCell>
        <mxCell id="oRPkmb5jc26MxPRfLBFK-126" value="/user_posts/:id" style="rounded=1;whiteSpace=wrap;html=1;fillColor=#BC6C25;strokeColor=#DDA15E;fontColor=#FEFAE0;" vertex="1" parent="1">
          <mxGeometry x="401.25" y="590" width="105" height="20" as="geometry" />
        </mxCell>
        <mxCell id="oRPkmb5jc26MxPRfLBFK-128" value="getUserPosts" style="rounded=1;whiteSpace=wrap;html=1;fillColor=#BC6C25;strokeColor=#DDA15E;fontColor=#FEFAE0;" vertex="1" parent="1">
          <mxGeometry x="531.25" y="590" width="95" height="20" as="geometry" />
        </mxCell>
        <mxCell id="oRPkmb5jc26MxPRfLBFK-130" style="edgeStyle=orthogonalEdgeStyle;curved=0;rounded=1;sketch=0;orthogonalLoop=1;jettySize=auto;html=1;entryX=0;entryY=0.5;entryDx=0;entryDy=0;labelBackgroundColor=#283618;strokeColor=#DDA15E;fontColor=#FEFAE0;" edge="1" parent="1" target="oRPkmb5jc26MxPRfLBFK-132">
          <mxGeometry relative="1" as="geometry">
            <mxPoint x="361.25" y="560" as="sourcePoint" />
          </mxGeometry>
        </mxCell>
        <mxCell id="oRPkmb5jc26MxPRfLBFK-131" style="edgeStyle=orthogonalEdgeStyle;rounded=1;orthogonalLoop=1;jettySize=auto;html=1;entryX=0;entryY=0.5;entryDx=0;entryDy=0;curved=1;labelBackgroundColor=#283618;strokeColor=#DDA15E;fontColor=#FEFAE0;" edge="1" parent="1" source="oRPkmb5jc26MxPRfLBFK-132" target="oRPkmb5jc26MxPRfLBFK-133">
          <mxGeometry relative="1" as="geometry" />
        </mxCell>
        <mxCell id="oRPkmb5jc26MxPRfLBFK-132" value="/user_discover" style="rounded=1;whiteSpace=wrap;html=1;fillColor=#BC6C25;strokeColor=#DDA15E;fontColor=#FEFAE0;" vertex="1" parent="1">
          <mxGeometry x="401.25" y="629.97" width="105" height="20" as="geometry" />
        </mxCell>
        <mxCell id="oRPkmb5jc26MxPRfLBFK-133" value="getPostsDiscover" style="rounded=1;whiteSpace=wrap;html=1;fillColor=#BC6C25;strokeColor=#DDA15E;fontColor=#FEFAE0;" vertex="1" parent="1">
          <mxGeometry x="531.25" y="629.97" width="107.5" height="20" as="geometry" />
        </mxCell>
        <mxCell id="oRPkmb5jc26MxPRfLBFK-134" style="edgeStyle=orthogonalEdgeStyle;curved=0;rounded=1;sketch=0;orthogonalLoop=1;jettySize=auto;html=1;entryX=0;entryY=0.5;entryDx=0;entryDy=0;exitX=1;exitY=0.5;exitDx=0;exitDy=0;labelBackgroundColor=#283618;strokeColor=#DDA15E;fontColor=#FEFAE0;" edge="1" parent="1" target="oRPkmb5jc26MxPRfLBFK-136" source="oRPkmb5jc26MxPRfLBFK-106">
          <mxGeometry relative="1" as="geometry">
            <mxPoint x="356.25" y="640.0285714285714" as="sourcePoint" />
          </mxGeometry>
        </mxCell>
        <mxCell id="oRPkmb5jc26MxPRfLBFK-135" style="edgeStyle=orthogonalEdgeStyle;rounded=1;orthogonalLoop=1;jettySize=auto;html=1;entryX=0;entryY=0.5;entryDx=0;entryDy=0;curved=1;labelBackgroundColor=#283618;strokeColor=#DDA15E;fontColor=#FEFAE0;" edge="1" parent="1" source="oRPkmb5jc26MxPRfLBFK-136" target="oRPkmb5jc26MxPRfLBFK-137">
          <mxGeometry relative="1" as="geometry" />
        </mxCell>
        <mxCell id="oRPkmb5jc26MxPRfLBFK-136" value="/getSavePosts" style="rounded=1;whiteSpace=wrap;html=1;fillColor=#BC6C25;strokeColor=#DDA15E;fontColor=#FEFAE0;" vertex="1" parent="1">
          <mxGeometry x="401.25" y="670" width="105" height="20" as="geometry" />
        </mxCell>
        <mxCell id="oRPkmb5jc26MxPRfLBFK-137" value="getSavePosts" style="rounded=1;whiteSpace=wrap;html=1;fillColor=#BC6C25;strokeColor=#DDA15E;fontColor=#FEFAE0;" vertex="1" parent="1">
          <mxGeometry x="531.25" y="670" width="95" height="20" as="geometry" />
        </mxCell>
        <mxCell id="oRPkmb5jc26MxPRfLBFK-139" style="edgeStyle=orthogonalEdgeStyle;rounded=1;orthogonalLoop=1;jettySize=auto;html=1;curved=1;labelBackgroundColor=#283618;strokeColor=#DDA15E;fontColor=#FEFAE0;" edge="1" parent="1" source="oRPkmb5jc26MxPRfLBFK-142" target="oRPkmb5jc26MxPRfLBFK-146">
          <mxGeometry relative="1" as="geometry">
            <Array as="points">
              <mxPoint x="380" y="810" />
              <mxPoint x="380" y="770" />
            </Array>
          </mxGeometry>
        </mxCell>
        <mxCell id="oRPkmb5jc26MxPRfLBFK-141" style="edgeStyle=orthogonalEdgeStyle;curved=0;rounded=1;sketch=0;orthogonalLoop=1;jettySize=auto;html=1;entryX=0;entryY=0.5;entryDx=0;entryDy=0;labelBackgroundColor=#283618;strokeColor=#DDA15E;fontColor=#FEFAE0;" edge="1" parent="1" source="oRPkmb5jc26MxPRfLBFK-142" target="oRPkmb5jc26MxPRfLBFK-150">
          <mxGeometry relative="1" as="geometry" />
        </mxCell>
        <mxCell id="oRPkmb5jc26MxPRfLBFK-213" style="edgeStyle=orthogonalEdgeStyle;curved=0;rounded=1;sketch=0;orthogonalLoop=1;jettySize=auto;html=1;entryX=0;entryY=0.5;entryDx=0;entryDy=0;fontColor=#FEFAE0;strokeColor=#DDA15E;fillColor=#BC6C25;labelBackgroundColor=#283618;" edge="1" parent="1" source="oRPkmb5jc26MxPRfLBFK-142" target="oRPkmb5jc26MxPRfLBFK-162">
          <mxGeometry relative="1" as="geometry" />
        </mxCell>
        <mxCell id="oRPkmb5jc26MxPRfLBFK-142" value="PATCH" style="rounded=1;whiteSpace=wrap;html=1;fillColor=#BC6C25;strokeColor=#DDA15E;fontColor=#FEFAE0;" vertex="1" parent="1">
          <mxGeometry x="278.75" y="800" width="80" height="20" as="geometry" />
        </mxCell>
        <mxCell id="oRPkmb5jc26MxPRfLBFK-145" style="edgeStyle=orthogonalEdgeStyle;rounded=1;orthogonalLoop=1;jettySize=auto;html=1;entryX=0;entryY=0.5;entryDx=0;entryDy=0;curved=1;labelBackgroundColor=#283618;strokeColor=#DDA15E;fontColor=#FEFAE0;" edge="1" parent="1" source="oRPkmb5jc26MxPRfLBFK-146" target="oRPkmb5jc26MxPRfLBFK-148">
          <mxGeometry relative="1" as="geometry" />
        </mxCell>
        <mxCell id="oRPkmb5jc26MxPRfLBFK-146" value="/post/:id" style="rounded=1;whiteSpace=wrap;html=1;fillColor=#BC6C25;strokeColor=#DDA15E;fontColor=#FEFAE0;" vertex="1" parent="1">
          <mxGeometry x="401.25" y="760" width="80" height="20" as="geometry" />
        </mxCell>
        <mxCell id="oRPkmb5jc26MxPRfLBFK-148" value="updatePost" style="rounded=1;whiteSpace=wrap;html=1;fillColor=#BC6C25;strokeColor=#DDA15E;fontColor=#FEFAE0;" vertex="1" parent="1">
          <mxGeometry x="507.5" y="760" width="80" height="20" as="geometry" />
        </mxCell>
        <mxCell id="oRPkmb5jc26MxPRfLBFK-149" style="edgeStyle=orthogonalEdgeStyle;rounded=1;orthogonalLoop=1;jettySize=auto;html=1;entryX=0;entryY=0.5;entryDx=0;entryDy=0;curved=1;labelBackgroundColor=#283618;strokeColor=#DDA15E;fontColor=#FEFAE0;" edge="1" parent="1" source="oRPkmb5jc26MxPRfLBFK-150" target="oRPkmb5jc26MxPRfLBFK-151">
          <mxGeometry relative="1" as="geometry" />
        </mxCell>
        <mxCell id="oRPkmb5jc26MxPRfLBFK-150" value="/post/:id/like" style="rounded=1;whiteSpace=wrap;html=1;fillColor=#BC6C25;strokeColor=#DDA15E;fontColor=#FEFAE0;" vertex="1" parent="1">
          <mxGeometry x="401.25" y="800" width="106.25" height="20" as="geometry" />
        </mxCell>
        <mxCell id="oRPkmb5jc26MxPRfLBFK-151" value="likePost" style="rounded=1;whiteSpace=wrap;html=1;fillColor=#BC6C25;strokeColor=#DDA15E;fontColor=#FEFAE0;" vertex="1" parent="1">
          <mxGeometry x="537.5" y="800" width="95" height="20" as="geometry" />
        </mxCell>
        <mxCell id="oRPkmb5jc26MxPRfLBFK-152" style="edgeStyle=orthogonalEdgeStyle;curved=0;rounded=1;sketch=0;orthogonalLoop=1;jettySize=auto;html=1;entryX=0;entryY=0.5;entryDx=0;entryDy=0;labelBackgroundColor=#283618;strokeColor=#DDA15E;fontColor=#FEFAE0;" edge="1" parent="1" target="oRPkmb5jc26MxPRfLBFK-154">
          <mxGeometry relative="1" as="geometry">
            <mxPoint x="363.75" y="810" as="sourcePoint" />
            <Array as="points">
              <mxPoint x="380" y="810" />
              <mxPoint x="380" y="850" />
            </Array>
          </mxGeometry>
        </mxCell>
        <mxCell id="oRPkmb5jc26MxPRfLBFK-153" style="edgeStyle=orthogonalEdgeStyle;rounded=1;orthogonalLoop=1;jettySize=auto;html=1;entryX=0;entryY=0.5;entryDx=0;entryDy=0;curved=1;labelBackgroundColor=#283618;strokeColor=#DDA15E;fontColor=#FEFAE0;" edge="1" parent="1" source="oRPkmb5jc26MxPRfLBFK-154" target="oRPkmb5jc26MxPRfLBFK-155">
          <mxGeometry relative="1" as="geometry" />
        </mxCell>
        <mxCell id="oRPkmb5jc26MxPRfLBFK-154" value="/post/:id/unlike" style="rounded=1;whiteSpace=wrap;html=1;fillColor=#BC6C25;strokeColor=#DDA15E;fontColor=#FEFAE0;" vertex="1" parent="1">
          <mxGeometry x="401.25" y="839.97" width="106.25" height="20" as="geometry" />
        </mxCell>
        <mxCell id="oRPkmb5jc26MxPRfLBFK-155" value="unLikePost" style="rounded=1;whiteSpace=wrap;html=1;fillColor=#BC6C25;strokeColor=#DDA15E;fontColor=#FEFAE0;" vertex="1" parent="1">
          <mxGeometry x="537.5" y="839.97" width="107.5" height="20" as="geometry" />
        </mxCell>
        <mxCell id="oRPkmb5jc26MxPRfLBFK-156" style="edgeStyle=orthogonalEdgeStyle;curved=0;rounded=1;sketch=0;orthogonalLoop=1;jettySize=auto;html=1;entryX=0;entryY=0.5;entryDx=0;entryDy=0;exitX=1;exitY=0.5;exitDx=0;exitDy=0;labelBackgroundColor=#283618;strokeColor=#DDA15E;fontColor=#FEFAE0;" edge="1" parent="1" source="oRPkmb5jc26MxPRfLBFK-142" target="oRPkmb5jc26MxPRfLBFK-158">
          <mxGeometry relative="1" as="geometry">
            <mxPoint x="356.25" y="890.0285714285714" as="sourcePoint" />
            <Array as="points">
              <mxPoint x="380" y="810" />
              <mxPoint x="380" y="890" />
            </Array>
          </mxGeometry>
        </mxCell>
        <mxCell id="oRPkmb5jc26MxPRfLBFK-157" style="edgeStyle=orthogonalEdgeStyle;rounded=1;orthogonalLoop=1;jettySize=auto;html=1;entryX=0;entryY=0.5;entryDx=0;entryDy=0;curved=1;labelBackgroundColor=#283618;strokeColor=#DDA15E;fontColor=#FEFAE0;" edge="1" parent="1" source="oRPkmb5jc26MxPRfLBFK-158" target="oRPkmb5jc26MxPRfLBFK-159">
          <mxGeometry relative="1" as="geometry" />
        </mxCell>
        <mxCell id="oRPkmb5jc26MxPRfLBFK-158" value="/savePost/:id" style="rounded=1;whiteSpace=wrap;html=1;fillColor=#BC6C25;strokeColor=#DDA15E;fontColor=#FEFAE0;" vertex="1" parent="1">
          <mxGeometry x="401.25" y="880" width="106.25" height="20" as="geometry" />
        </mxCell>
        <mxCell id="oRPkmb5jc26MxPRfLBFK-159" value="savePost" style="rounded=1;whiteSpace=wrap;html=1;fillColor=#BC6C25;strokeColor=#DDA15E;fontColor=#FEFAE0;" vertex="1" parent="1">
          <mxGeometry x="537.5" y="880" width="95" height="20" as="geometry" />
        </mxCell>
        <mxCell id="oRPkmb5jc26MxPRfLBFK-161" style="edgeStyle=orthogonalEdgeStyle;rounded=1;orthogonalLoop=1;jettySize=auto;html=1;entryX=0;entryY=0.5;entryDx=0;entryDy=0;curved=1;labelBackgroundColor=#283618;strokeColor=#DDA15E;fontColor=#FEFAE0;shadow=1;" edge="1" parent="1" source="oRPkmb5jc26MxPRfLBFK-162" target="oRPkmb5jc26MxPRfLBFK-163">
          <mxGeometry relative="1" as="geometry" />
        </mxCell>
        <mxCell id="oRPkmb5jc26MxPRfLBFK-162" value="/unSavePost/:id" style="rounded=1;whiteSpace=wrap;html=1;fillColor=#BC6C25;strokeColor=#DDA15E;fontColor=#FEFAE0;shadow=1;" vertex="1" parent="1">
          <mxGeometry x="401.25" y="920" width="106.25" height="20" as="geometry" />
        </mxCell>
        <mxCell id="oRPkmb5jc26MxPRfLBFK-163" value="unSavePost" style="rounded=1;whiteSpace=wrap;html=1;fillColor=#BC6C25;strokeColor=#DDA15E;fontColor=#FEFAE0;shadow=1;" vertex="1" parent="1">
          <mxGeometry x="537.5" y="920" width="95" height="20" as="geometry" />
        </mxCell>
        <mxCell id="oRPkmb5jc26MxPRfLBFK-164" style="edgeStyle=orthogonalEdgeStyle;rounded=1;orthogonalLoop=1;jettySize=auto;html=1;curved=1;labelBackgroundColor=#283618;strokeColor=#DDA15E;fontColor=#FEFAE0;" edge="1" parent="1" source="oRPkmb5jc26MxPRfLBFK-167" target="oRPkmb5jc26MxPRfLBFK-175">
          <mxGeometry relative="1" as="geometry" />
        </mxCell>
        <mxCell id="oRPkmb5jc26MxPRfLBFK-167" value="POST" style="rounded=1;whiteSpace=wrap;html=1;fillColor=#BC6C25;strokeColor=#DDA15E;fontColor=#FEFAE0;" vertex="1" parent="1">
          <mxGeometry x="278.75" y="1060" width="80" height="20" as="geometry" />
        </mxCell>
        <mxCell id="oRPkmb5jc26MxPRfLBFK-168" style="edgeStyle=orthogonalEdgeStyle;rounded=1;orthogonalLoop=1;jettySize=auto;html=1;entryX=0;entryY=0.5;entryDx=0;entryDy=0;curved=1;labelBackgroundColor=#283618;strokeColor=#DDA15E;fontColor=#FEFAE0;" edge="1" parent="1" source="oRPkmb5jc26MxPRfLBFK-171" target="oRPkmb5jc26MxPRfLBFK-179">
          <mxGeometry relative="1" as="geometry" />
        </mxCell>
        <mxCell id="oRPkmb5jc26MxPRfLBFK-169" style="edgeStyle=orthogonalEdgeStyle;curved=0;rounded=1;sketch=0;orthogonalLoop=1;jettySize=auto;html=1;entryX=0;entryY=0.5;entryDx=0;entryDy=0;labelBackgroundColor=#283618;strokeColor=#DDA15E;fontColor=#FEFAE0;" edge="1" parent="1" source="oRPkmb5jc26MxPRfLBFK-171" target="oRPkmb5jc26MxPRfLBFK-185">
          <mxGeometry relative="1" as="geometry" />
        </mxCell>
        <mxCell id="oRPkmb5jc26MxPRfLBFK-170" style="edgeStyle=orthogonalEdgeStyle;curved=0;rounded=1;sketch=0;orthogonalLoop=1;jettySize=auto;html=1;entryX=0;entryY=0.5;entryDx=0;entryDy=0;labelBackgroundColor=#283618;strokeColor=#DDA15E;fontColor=#FEFAE0;" edge="1" parent="1" source="oRPkmb5jc26MxPRfLBFK-171" target="oRPkmb5jc26MxPRfLBFK-177">
          <mxGeometry relative="1" as="geometry" />
        </mxCell>
        <mxCell id="oRPkmb5jc26MxPRfLBFK-171" value="PATCH" style="rounded=1;whiteSpace=wrap;html=1;fillColor=#BC6C25;strokeColor=#DDA15E;fontColor=#FEFAE0;" vertex="1" parent="1">
          <mxGeometry x="279.38" y="1141" width="80" height="20" as="geometry" />
        </mxCell>
        <mxCell id="oRPkmb5jc26MxPRfLBFK-174" style="edgeStyle=orthogonalEdgeStyle;rounded=1;orthogonalLoop=1;jettySize=auto;html=1;entryX=0;entryY=0.5;entryDx=0;entryDy=0;curved=1;labelBackgroundColor=#283618;strokeColor=#DDA15E;fontColor=#FEFAE0;" edge="1" parent="1" source="oRPkmb5jc26MxPRfLBFK-175" target="oRPkmb5jc26MxPRfLBFK-181">
          <mxGeometry relative="1" as="geometry" />
        </mxCell>
        <mxCell id="oRPkmb5jc26MxPRfLBFK-175" value="/comment" style="rounded=1;whiteSpace=wrap;html=1;fillColor=#BC6C25;strokeColor=#DDA15E;fontColor=#FEFAE0;" vertex="1" parent="1">
          <mxGeometry x="401.25" y="1060" width="80" height="20" as="geometry" />
        </mxCell>
        <mxCell id="oRPkmb5jc26MxPRfLBFK-176" style="edgeStyle=orthogonalEdgeStyle;rounded=1;orthogonalLoop=1;jettySize=auto;html=1;entryX=0;entryY=0.5;entryDx=0;entryDy=0;curved=1;labelBackgroundColor=#283618;strokeColor=#DDA15E;fontColor=#FEFAE0;" edge="1" parent="1" source="oRPkmb5jc26MxPRfLBFK-177" target="oRPkmb5jc26MxPRfLBFK-182">
          <mxGeometry relative="1" as="geometry" />
        </mxCell>
        <mxCell id="oRPkmb5jc26MxPRfLBFK-177" value="/comment/:id" style="rounded=1;whiteSpace=wrap;html=1;fillColor=#BC6C25;strokeColor=#DDA15E;fontColor=#FEFAE0;" vertex="1" parent="1">
          <mxGeometry x="401.25" y="1101" width="101.25" height="20" as="geometry" />
        </mxCell>
        <mxCell id="oRPkmb5jc26MxPRfLBFK-178" style="edgeStyle=orthogonalEdgeStyle;rounded=1;orthogonalLoop=1;jettySize=auto;html=1;entryX=0;entryY=0.5;entryDx=0;entryDy=0;curved=1;labelBackgroundColor=#283618;strokeColor=#DDA15E;fontColor=#FEFAE0;" edge="1" parent="1" source="oRPkmb5jc26MxPRfLBFK-179" target="oRPkmb5jc26MxPRfLBFK-183">
          <mxGeometry relative="1" as="geometry" />
        </mxCell>
        <mxCell id="oRPkmb5jc26MxPRfLBFK-179" value="/comment/:id/like" style="rounded=1;whiteSpace=wrap;html=1;fillColor=#BC6C25;strokeColor=#DDA15E;fontColor=#FEFAE0;" vertex="1" parent="1">
          <mxGeometry x="401.25" y="1141" width="121.25" height="20" as="geometry" />
        </mxCell>
        <mxCell id="oRPkmb5jc26MxPRfLBFK-181" value="createComment" style="rounded=1;whiteSpace=wrap;html=1;fillColor=#BC6C25;strokeColor=#DDA15E;fontColor=#FEFAE0;" vertex="1" parent="1">
          <mxGeometry x="506.25" y="1060" width="106.25" height="20" as="geometry" />
        </mxCell>
        <mxCell id="oRPkmb5jc26MxPRfLBFK-182" value="updateComment" style="rounded=1;whiteSpace=wrap;html=1;fillColor=#BC6C25;strokeColor=#DDA15E;fontColor=#FEFAE0;" vertex="1" parent="1">
          <mxGeometry x="532.5" y="1101" width="120" height="20" as="geometry" />
        </mxCell>
        <mxCell id="oRPkmb5jc26MxPRfLBFK-183" value="follow" style="rounded=1;whiteSpace=wrap;html=1;fillColor=#BC6C25;strokeColor=#DDA15E;fontColor=#FEFAE0;" vertex="1" parent="1">
          <mxGeometry x="555" y="1141" width="85" height="20" as="geometry" />
        </mxCell>
        <mxCell id="oRPkmb5jc26MxPRfLBFK-184" style="edgeStyle=orthogonalEdgeStyle;rounded=1;orthogonalLoop=1;jettySize=auto;html=1;entryX=0;entryY=0.5;entryDx=0;entryDy=0;curved=1;labelBackgroundColor=#283618;strokeColor=#DDA15E;fontColor=#FEFAE0;" edge="1" parent="1" source="oRPkmb5jc26MxPRfLBFK-185" target="oRPkmb5jc26MxPRfLBFK-188">
          <mxGeometry relative="1" as="geometry" />
        </mxCell>
        <mxCell id="oRPkmb5jc26MxPRfLBFK-185" value="/comment/:id/unlike" style="rounded=1;whiteSpace=wrap;html=1;fillColor=#BC6C25;strokeColor=#DDA15E;fontColor=#FEFAE0;" vertex="1" parent="1">
          <mxGeometry x="401.25" y="1181" width="121.25" height="20" as="geometry" />
        </mxCell>
        <mxCell id="oRPkmb5jc26MxPRfLBFK-188" value="unLike" style="rounded=1;whiteSpace=wrap;html=1;fillColor=#BC6C25;strokeColor=#DDA15E;fontColor=#FEFAE0;" vertex="1" parent="1">
          <mxGeometry x="555" y="1181" width="85" height="20" as="geometry" />
        </mxCell>
        <mxCell id="oRPkmb5jc26MxPRfLBFK-193" style="edgeStyle=orthogonalEdgeStyle;rounded=1;orthogonalLoop=1;jettySize=auto;html=1;entryX=0;entryY=0.5;entryDx=0;entryDy=0;curved=1;labelBackgroundColor=#283618;strokeColor=#DDA15E;fontColor=#FEFAE0;" edge="1" parent="1" source="oRPkmb5jc26MxPRfLBFK-194" target="oRPkmb5jc26MxPRfLBFK-196">
          <mxGeometry relative="1" as="geometry" />
        </mxCell>
        <mxCell id="oRPkmb5jc26MxPRfLBFK-194" value="DELETE" style="rounded=1;whiteSpace=wrap;html=1;fillColor=#BC6C25;strokeColor=#DDA15E;fontColor=#FEFAE0;" vertex="1" parent="1">
          <mxGeometry x="279.38" y="960" width="80" height="20" as="geometry" />
        </mxCell>
        <mxCell id="oRPkmb5jc26MxPRfLBFK-195" style="edgeStyle=orthogonalEdgeStyle;rounded=1;orthogonalLoop=1;jettySize=auto;html=1;entryX=0;entryY=0.5;entryDx=0;entryDy=0;curved=1;labelBackgroundColor=#283618;strokeColor=#DDA15E;fontColor=#FEFAE0;" edge="1" parent="1" source="oRPkmb5jc26MxPRfLBFK-196" target="oRPkmb5jc26MxPRfLBFK-197">
          <mxGeometry relative="1" as="geometry" />
        </mxCell>
        <mxCell id="oRPkmb5jc26MxPRfLBFK-196" value="/posts/:id" style="rounded=1;whiteSpace=wrap;html=1;fillColor=#BC6C25;strokeColor=#DDA15E;fontColor=#FEFAE0;" vertex="1" parent="1">
          <mxGeometry x="401.25" y="960" width="80" height="20" as="geometry" />
        </mxCell>
        <mxCell id="oRPkmb5jc26MxPRfLBFK-197" value="deletePost" style="rounded=1;whiteSpace=wrap;html=1;fillColor=#BC6C25;strokeColor=#DDA15E;fontColor=#FEFAE0;" vertex="1" parent="1">
          <mxGeometry x="508.13" y="960" width="85" height="20" as="geometry" />
        </mxCell>
        <mxCell id="oRPkmb5jc26MxPRfLBFK-200" style="edgeStyle=orthogonalEdgeStyle;rounded=1;orthogonalLoop=1;jettySize=auto;html=1;curved=1;labelBackgroundColor=#283618;strokeColor=#DDA15E;fontColor=#FEFAE0;" edge="1" parent="1" source="oRPkmb5jc26MxPRfLBFK-201" target="oRPkmb5jc26MxPRfLBFK-203">
          <mxGeometry relative="1" as="geometry" />
        </mxCell>
        <mxCell id="oRPkmb5jc26MxPRfLBFK-201" value="DELETE" style="rounded=1;whiteSpace=wrap;html=1;fillColor=#BC6C25;strokeColor=#DDA15E;fontColor=#FEFAE0;" vertex="1" parent="1">
          <mxGeometry x="280.01" y="1221" width="80" height="20" as="geometry" />
        </mxCell>
        <mxCell id="oRPkmb5jc26MxPRfLBFK-202" style="edgeStyle=orthogonalEdgeStyle;rounded=1;orthogonalLoop=1;jettySize=auto;html=1;entryX=0;entryY=0.5;entryDx=0;entryDy=0;curved=1;labelBackgroundColor=#283618;strokeColor=#DDA15E;fontColor=#FEFAE0;" edge="1" parent="1" source="oRPkmb5jc26MxPRfLBFK-203" target="oRPkmb5jc26MxPRfLBFK-204">
          <mxGeometry relative="1" as="geometry" />
        </mxCell>
        <mxCell id="oRPkmb5jc26MxPRfLBFK-203" value="/comment/:id" style="rounded=1;whiteSpace=wrap;html=1;fillColor=#BC6C25;strokeColor=#DDA15E;fontColor=#FEFAE0;" vertex="1" parent="1">
          <mxGeometry x="401.88" y="1221" width="100.62" height="20" as="geometry" />
        </mxCell>
        <mxCell id="oRPkmb5jc26MxPRfLBFK-204" value="deleteComment" style="rounded=1;whiteSpace=wrap;html=1;fillColor=#BC6C25;strokeColor=#DDA15E;fontColor=#FEFAE0;" vertex="1" parent="1">
          <mxGeometry x="533.75" y="1221" width="118.75" height="20" as="geometry" />
        </mxCell>
        <mxCell id="oRPkmb5jc26MxPRfLBFK-208" style="edgeStyle=orthogonalEdgeStyle;rounded=1;orthogonalLoop=1;jettySize=auto;html=1;curved=1;labelBackgroundColor=#283618;strokeColor=#DDA15E;fontColor=#FEFAE0;" edge="1" parent="1" source="oRPkmb5jc26MxPRfLBFK-209" target="oRPkmb5jc26MxPRfLBFK-211">
          <mxGeometry relative="1" as="geometry" />
        </mxCell>
        <mxCell id="oRPkmb5jc26MxPRfLBFK-209" value="GET" style="rounded=1;whiteSpace=wrap;html=1;fillColor=#BC6C25;strokeColor=#DDA15E;fontColor=#FEFAE0;" vertex="1" parent="1">
          <mxGeometry x="280.01" y="1330" width="80" height="20" as="geometry" />
        </mxCell>
        <mxCell id="oRPkmb5jc26MxPRfLBFK-210" style="edgeStyle=orthogonalEdgeStyle;rounded=1;orthogonalLoop=1;jettySize=auto;html=1;entryX=0;entryY=0.5;entryDx=0;entryDy=0;curved=1;labelBackgroundColor=#283618;strokeColor=#DDA15E;fontColor=#FEFAE0;" edge="1" parent="1" source="oRPkmb5jc26MxPRfLBFK-211" target="oRPkmb5jc26MxPRfLBFK-212">
          <mxGeometry relative="1" as="geometry" />
        </mxCell>
        <mxCell id="oRPkmb5jc26MxPRfLBFK-211" value="/notifies" style="rounded=1;whiteSpace=wrap;html=1;fillColor=#BC6C25;strokeColor=#DDA15E;fontColor=#FEFAE0;" vertex="1" parent="1">
          <mxGeometry x="400.01" y="1330" width="80" height="20" as="geometry" />
        </mxCell>
        <mxCell id="oRPkmb5jc26MxPRfLBFK-212" value="getNotifies" style="rounded=1;whiteSpace=wrap;html=1;fillColor=#BC6C25;strokeColor=#DDA15E;fontColor=#FEFAE0;" vertex="1" parent="1">
          <mxGeometry x="505.01" y="1330" width="106.25" height="20" as="geometry" />
        </mxCell>
        <mxCell id="oRPkmb5jc26MxPRfLBFK-214" style="edgeStyle=orthogonalEdgeStyle;rounded=1;orthogonalLoop=1;jettySize=auto;html=1;curved=1;labelBackgroundColor=#283618;strokeColor=#DDA15E;fontColor=#FEFAE0;" edge="1" parent="1" source="oRPkmb5jc26MxPRfLBFK-215" target="oRPkmb5jc26MxPRfLBFK-217">
          <mxGeometry relative="1" as="geometry" />
        </mxCell>
        <mxCell id="oRPkmb5jc26MxPRfLBFK-215" value="POST" style="rounded=1;whiteSpace=wrap;html=1;fillColor=#BC6C25;strokeColor=#DDA15E;fontColor=#FEFAE0;" vertex="1" parent="1">
          <mxGeometry x="280.01" y="1370" width="80" height="20" as="geometry" />
        </mxCell>
        <mxCell id="oRPkmb5jc26MxPRfLBFK-216" style="edgeStyle=orthogonalEdgeStyle;rounded=1;orthogonalLoop=1;jettySize=auto;html=1;entryX=0;entryY=0.5;entryDx=0;entryDy=0;curved=1;labelBackgroundColor=#283618;strokeColor=#DDA15E;fontColor=#FEFAE0;" edge="1" parent="1" source="oRPkmb5jc26MxPRfLBFK-217" target="oRPkmb5jc26MxPRfLBFK-218">
          <mxGeometry relative="1" as="geometry" />
        </mxCell>
        <mxCell id="oRPkmb5jc26MxPRfLBFK-217" value="/notify" style="rounded=1;whiteSpace=wrap;html=1;fillColor=#BC6C25;strokeColor=#DDA15E;fontColor=#FEFAE0;" vertex="1" parent="1">
          <mxGeometry x="400.01" y="1370" width="80" height="20" as="geometry" />
        </mxCell>
        <mxCell id="oRPkmb5jc26MxPRfLBFK-218" value="createNotify" style="rounded=1;whiteSpace=wrap;html=1;fillColor=#BC6C25;strokeColor=#DDA15E;fontColor=#FEFAE0;" vertex="1" parent="1">
          <mxGeometry x="505.01" y="1370" width="106.25" height="20" as="geometry" />
        </mxCell>
        <mxCell id="oRPkmb5jc26MxPRfLBFK-219" style="edgeStyle=orthogonalEdgeStyle;rounded=1;orthogonalLoop=1;jettySize=auto;html=1;curved=1;labelBackgroundColor=#283618;strokeColor=#DDA15E;fontColor=#FEFAE0;" edge="1" parent="1" source="oRPkmb5jc26MxPRfLBFK-220" target="oRPkmb5jc26MxPRfLBFK-222">
          <mxGeometry relative="1" as="geometry" />
        </mxCell>
        <mxCell id="oRPkmb5jc26MxPRfLBFK-220" value="PATCH" style="rounded=1;whiteSpace=wrap;html=1;fillColor=#BC6C25;strokeColor=#DDA15E;fontColor=#FEFAE0;" vertex="1" parent="1">
          <mxGeometry x="280.01" y="1410" width="80" height="20" as="geometry" />
        </mxCell>
        <mxCell id="oRPkmb5jc26MxPRfLBFK-221" style="edgeStyle=orthogonalEdgeStyle;rounded=1;orthogonalLoop=1;jettySize=auto;html=1;entryX=0;entryY=0.5;entryDx=0;entryDy=0;curved=1;labelBackgroundColor=#283618;strokeColor=#DDA15E;fontColor=#FEFAE0;" edge="1" parent="1" source="oRPkmb5jc26MxPRfLBFK-222" target="oRPkmb5jc26MxPRfLBFK-223">
          <mxGeometry relative="1" as="geometry" />
        </mxCell>
        <mxCell id="oRPkmb5jc26MxPRfLBFK-222" value="/isReadNotify/:id" style="rounded=1;whiteSpace=wrap;html=1;fillColor=#BC6C25;strokeColor=#DDA15E;fontColor=#FEFAE0;" vertex="1" parent="1">
          <mxGeometry x="400.01" y="1410" width="122.5" height="20" as="geometry" />
        </mxCell>
        <mxCell id="oRPkmb5jc26MxPRfLBFK-223" value="getNotifies" style="rounded=1;whiteSpace=wrap;html=1;fillColor=#BC6C25;strokeColor=#DDA15E;fontColor=#FEFAE0;" vertex="1" parent="1">
          <mxGeometry x="557.51" y="1410" width="106.25" height="20" as="geometry" />
        </mxCell>
        <mxCell id="oRPkmb5jc26MxPRfLBFK-229" style="edgeStyle=orthogonalEdgeStyle;curved=0;rounded=1;sketch=0;orthogonalLoop=1;jettySize=auto;html=1;entryX=0;entryY=0.5;entryDx=0;entryDy=0;fontColor=#FEFAE0;strokeColor=#DDA15E;fillColor=#BC6C25;" edge="1" parent="1" source="oRPkmb5jc26MxPRfLBFK-225" target="oRPkmb5jc26MxPRfLBFK-227">
          <mxGeometry relative="1" as="geometry" />
        </mxCell>
        <mxCell id="oRPkmb5jc26MxPRfLBFK-233" style="edgeStyle=orthogonalEdgeStyle;curved=0;rounded=1;sketch=0;orthogonalLoop=1;jettySize=auto;html=1;entryX=0;entryY=0.5;entryDx=0;entryDy=0;fontColor=#FEFAE0;strokeColor=#DDA15E;fillColor=#BC6C25;" edge="1" parent="1" source="oRPkmb5jc26MxPRfLBFK-225" target="oRPkmb5jc26MxPRfLBFK-231">
          <mxGeometry relative="1" as="geometry" />
        </mxCell>
        <mxCell id="oRPkmb5jc26MxPRfLBFK-225" value="DELETE" style="rounded=1;whiteSpace=wrap;html=1;fillColor=#BC6C25;strokeColor=#DDA15E;fontColor=#FEFAE0;" vertex="1" parent="1">
          <mxGeometry x="277.5" y="1470" width="80" height="20" as="geometry" />
        </mxCell>
        <mxCell id="oRPkmb5jc26MxPRfLBFK-226" style="edgeStyle=orthogonalEdgeStyle;rounded=1;orthogonalLoop=1;jettySize=auto;html=1;entryX=0;entryY=0.5;entryDx=0;entryDy=0;curved=1;labelBackgroundColor=#283618;strokeColor=#DDA15E;fontColor=#FEFAE0;" edge="1" parent="1" source="oRPkmb5jc26MxPRfLBFK-227" target="oRPkmb5jc26MxPRfLBFK-228">
          <mxGeometry relative="1" as="geometry" />
        </mxCell>
        <mxCell id="oRPkmb5jc26MxPRfLBFK-227" value="/notifies/:id" style="rounded=1;whiteSpace=wrap;html=1;fillColor=#BC6C25;strokeColor=#DDA15E;fontColor=#FEFAE0;" vertex="1" parent="1">
          <mxGeometry x="398.75" y="1450" width="91.25" height="20" as="geometry" />
        </mxCell>
        <mxCell id="oRPkmb5jc26MxPRfLBFK-228" value="removeNotify" style="rounded=1;whiteSpace=wrap;html=1;fillColor=#BC6C25;strokeColor=#DDA15E;fontColor=#FEFAE0;" vertex="1" parent="1">
          <mxGeometry x="522.5" y="1450" width="106.25" height="20" as="geometry" />
        </mxCell>
        <mxCell id="oRPkmb5jc26MxPRfLBFK-230" style="edgeStyle=orthogonalEdgeStyle;rounded=1;orthogonalLoop=1;jettySize=auto;html=1;entryX=0;entryY=0.5;entryDx=0;entryDy=0;curved=1;labelBackgroundColor=#283618;strokeColor=#DDA15E;fontColor=#FEFAE0;" edge="1" parent="1" source="oRPkmb5jc26MxPRfLBFK-231" target="oRPkmb5jc26MxPRfLBFK-232">
          <mxGeometry relative="1" as="geometry" />
        </mxCell>
        <mxCell id="oRPkmb5jc26MxPRfLBFK-231" value="/deleteAllNotify" style="rounded=1;whiteSpace=wrap;html=1;fillColor=#BC6C25;strokeColor=#DDA15E;fontColor=#FEFAE0;" vertex="1" parent="1">
          <mxGeometry x="398.75" y="1490" width="111.25" height="20" as="geometry" />
        </mxCell>
        <mxCell id="oRPkmb5jc26MxPRfLBFK-232" value="deleteAllNotify" style="rounded=1;whiteSpace=wrap;html=1;fillColor=#BC6C25;strokeColor=#DDA15E;fontColor=#FEFAE0;" vertex="1" parent="1">
          <mxGeometry x="544.38" y="1490" width="106.25" height="20" as="geometry" />
        </mxCell>
        <mxCell id="oRPkmb5jc26MxPRfLBFK-238" style="edgeStyle=orthogonalEdgeStyle;curved=0;rounded=1;sketch=0;orthogonalLoop=1;jettySize=auto;html=1;entryX=0;entryY=0.5;entryDx=0;entryDy=0;fontColor=#FEFAE0;strokeColor=#DDA15E;fillColor=#BC6C25;" edge="1" parent="1" source="oRPkmb5jc26MxPRfLBFK-240" target="oRPkmb5jc26MxPRfLBFK-242">
          <mxGeometry relative="1" as="geometry" />
        </mxCell>
        <mxCell id="oRPkmb5jc26MxPRfLBFK-239" style="edgeStyle=orthogonalEdgeStyle;curved=0;rounded=1;sketch=0;orthogonalLoop=1;jettySize=auto;html=1;entryX=0;entryY=0.5;entryDx=0;entryDy=0;fontColor=#FEFAE0;strokeColor=#DDA15E;fillColor=#BC6C25;" edge="1" parent="1" source="oRPkmb5jc26MxPRfLBFK-240" target="oRPkmb5jc26MxPRfLBFK-245">
          <mxGeometry relative="1" as="geometry" />
        </mxCell>
        <mxCell id="oRPkmb5jc26MxPRfLBFK-240" value="GET" style="rounded=1;whiteSpace=wrap;html=1;fillColor=#BC6C25;strokeColor=#DDA15E;fontColor=#FEFAE0;" vertex="1" parent="1">
          <mxGeometry x="277.5" y="1620" width="80" height="20" as="geometry" />
        </mxCell>
        <mxCell id="oRPkmb5jc26MxPRfLBFK-241" style="edgeStyle=orthogonalEdgeStyle;rounded=1;orthogonalLoop=1;jettySize=auto;html=1;entryX=0;entryY=0.5;entryDx=0;entryDy=0;curved=1;labelBackgroundColor=#283618;strokeColor=#DDA15E;fontColor=#FEFAE0;" edge="1" parent="1" source="oRPkmb5jc26MxPRfLBFK-242" target="oRPkmb5jc26MxPRfLBFK-243">
          <mxGeometry relative="1" as="geometry" />
        </mxCell>
        <mxCell id="oRPkmb5jc26MxPRfLBFK-242" value="/conversation" style="rounded=1;whiteSpace=wrap;html=1;fillColor=#BC6C25;strokeColor=#DDA15E;fontColor=#FEFAE0;" vertex="1" parent="1">
          <mxGeometry x="398.75" y="1600" width="91.25" height="20" as="geometry" />
        </mxCell>
        <mxCell id="oRPkmb5jc26MxPRfLBFK-243" value="getConversation" style="rounded=1;whiteSpace=wrap;html=1;fillColor=#BC6C25;strokeColor=#DDA15E;fontColor=#FEFAE0;" vertex="1" parent="1">
          <mxGeometry x="522.5" y="1600" width="106.25" height="20" as="geometry" />
        </mxCell>
        <mxCell id="oRPkmb5jc26MxPRfLBFK-244" style="edgeStyle=orthogonalEdgeStyle;rounded=1;orthogonalLoop=1;jettySize=auto;html=1;entryX=0;entryY=0.5;entryDx=0;entryDy=0;curved=1;labelBackgroundColor=#283618;strokeColor=#DDA15E;fontColor=#FEFAE0;" edge="1" parent="1" source="oRPkmb5jc26MxPRfLBFK-245" target="oRPkmb5jc26MxPRfLBFK-246">
          <mxGeometry relative="1" as="geometry" />
        </mxCell>
        <mxCell id="oRPkmb5jc26MxPRfLBFK-245" value="/message/:id" style="rounded=1;whiteSpace=wrap;html=1;fillColor=#BC6C25;strokeColor=#DDA15E;fontColor=#FEFAE0;" vertex="1" parent="1">
          <mxGeometry x="398.75" y="1640" width="111.25" height="20" as="geometry" />
        </mxCell>
        <mxCell id="oRPkmb5jc26MxPRfLBFK-246" value="getMessage" style="rounded=1;whiteSpace=wrap;html=1;fillColor=#BC6C25;strokeColor=#DDA15E;fontColor=#FEFAE0;" vertex="1" parent="1">
          <mxGeometry x="544.38" y="1640" width="106.25" height="20" as="geometry" />
        </mxCell>
        <mxCell id="oRPkmb5jc26MxPRfLBFK-247" style="edgeStyle=orthogonalEdgeStyle;rounded=1;orthogonalLoop=1;jettySize=auto;html=1;curved=1;labelBackgroundColor=#283618;strokeColor=#DDA15E;fontColor=#FEFAE0;" edge="1" parent="1" source="oRPkmb5jc26MxPRfLBFK-248" target="oRPkmb5jc26MxPRfLBFK-250">
          <mxGeometry relative="1" as="geometry" />
        </mxCell>
        <mxCell id="oRPkmb5jc26MxPRfLBFK-248" value="POST" style="rounded=1;whiteSpace=wrap;html=1;fillColor=#BC6C25;strokeColor=#DDA15E;fontColor=#FEFAE0;" vertex="1" parent="1">
          <mxGeometry x="279.38" y="1690" width="80" height="20" as="geometry" />
        </mxCell>
        <mxCell id="oRPkmb5jc26MxPRfLBFK-249" style="edgeStyle=orthogonalEdgeStyle;rounded=1;orthogonalLoop=1;jettySize=auto;html=1;entryX=0;entryY=0.5;entryDx=0;entryDy=0;curved=1;labelBackgroundColor=#283618;strokeColor=#DDA15E;fontColor=#FEFAE0;" edge="1" parent="1" source="oRPkmb5jc26MxPRfLBFK-250" target="oRPkmb5jc26MxPRfLBFK-251">
          <mxGeometry relative="1" as="geometry" />
        </mxCell>
        <mxCell id="oRPkmb5jc26MxPRfLBFK-250" value="/message" style="rounded=1;whiteSpace=wrap;html=1;fillColor=#BC6C25;strokeColor=#DDA15E;fontColor=#FEFAE0;" vertex="1" parent="1">
          <mxGeometry x="399.38" y="1690" width="80" height="20" as="geometry" />
        </mxCell>
        <mxCell id="oRPkmb5jc26MxPRfLBFK-251" value="createMessage" style="rounded=1;whiteSpace=wrap;html=1;fillColor=#BC6C25;strokeColor=#DDA15E;fontColor=#FEFAE0;" vertex="1" parent="1">
          <mxGeometry x="504.38" y="1690" width="106.25" height="20" as="geometry" />
        </mxCell>
        <mxCell id="oRPkmb5jc26MxPRfLBFK-252" style="edgeStyle=orthogonalEdgeStyle;curved=0;rounded=1;sketch=0;orthogonalLoop=1;jettySize=auto;html=1;entryX=0;entryY=0.5;entryDx=0;entryDy=0;fontColor=#FEFAE0;strokeColor=#DDA15E;fillColor=#BC6C25;" edge="1" parent="1" source="oRPkmb5jc26MxPRfLBFK-254" target="oRPkmb5jc26MxPRfLBFK-256">
          <mxGeometry relative="1" as="geometry" />
        </mxCell>
        <mxCell id="oRPkmb5jc26MxPRfLBFK-253" style="edgeStyle=orthogonalEdgeStyle;curved=0;rounded=1;sketch=0;orthogonalLoop=1;jettySize=auto;html=1;entryX=0;entryY=0.5;entryDx=0;entryDy=0;fontColor=#FEFAE0;strokeColor=#DDA15E;fillColor=#BC6C25;" edge="1" parent="1" source="oRPkmb5jc26MxPRfLBFK-254" target="oRPkmb5jc26MxPRfLBFK-259">
          <mxGeometry relative="1" as="geometry" />
        </mxCell>
        <mxCell id="oRPkmb5jc26MxPRfLBFK-254" value="DELETE" style="rounded=1;whiteSpace=wrap;html=1;fillColor=#BC6C25;strokeColor=#DDA15E;fontColor=#FEFAE0;" vertex="1" parent="1">
          <mxGeometry x="277.5" y="1760" width="80" height="20" as="geometry" />
        </mxCell>
        <mxCell id="oRPkmb5jc26MxPRfLBFK-255" style="edgeStyle=orthogonalEdgeStyle;rounded=1;orthogonalLoop=1;jettySize=auto;html=1;entryX=0;entryY=0.5;entryDx=0;entryDy=0;curved=1;labelBackgroundColor=#283618;strokeColor=#DDA15E;fontColor=#FEFAE0;" edge="1" parent="1" source="oRPkmb5jc26MxPRfLBFK-256" target="oRPkmb5jc26MxPRfLBFK-257">
          <mxGeometry relative="1" as="geometry" />
        </mxCell>
        <mxCell id="oRPkmb5jc26MxPRfLBFK-256" value="/message/:id" style="rounded=1;whiteSpace=wrap;html=1;fillColor=#BC6C25;strokeColor=#DDA15E;fontColor=#FEFAE0;" vertex="1" parent="1">
          <mxGeometry x="398.75" y="1740" width="91.25" height="20" as="geometry" />
        </mxCell>
        <mxCell id="oRPkmb5jc26MxPRfLBFK-257" value="deleteMessage" style="rounded=1;whiteSpace=wrap;html=1;fillColor=#BC6C25;strokeColor=#DDA15E;fontColor=#FEFAE0;" vertex="1" parent="1">
          <mxGeometry x="522.5" y="1740" width="106.25" height="20" as="geometry" />
        </mxCell>
        <mxCell id="oRPkmb5jc26MxPRfLBFK-258" style="edgeStyle=orthogonalEdgeStyle;rounded=1;orthogonalLoop=1;jettySize=auto;html=1;entryX=0;entryY=0.5;entryDx=0;entryDy=0;curved=1;labelBackgroundColor=#283618;strokeColor=#DDA15E;fontColor=#FEFAE0;" edge="1" parent="1" source="oRPkmb5jc26MxPRfLBFK-259" target="oRPkmb5jc26MxPRfLBFK-260">
          <mxGeometry relative="1" as="geometry" />
        </mxCell>
        <mxCell id="oRPkmb5jc26MxPRfLBFK-259" value="/conversation/:id" style="rounded=1;whiteSpace=wrap;html=1;fillColor=#BC6C25;strokeColor=#DDA15E;fontColor=#FEFAE0;" vertex="1" parent="1">
          <mxGeometry x="398.75" y="1780" width="111.25" height="20" as="geometry" />
        </mxCell>
        <mxCell id="oRPkmb5jc26MxPRfLBFK-260" value="deleteConversation" style="rounded=1;whiteSpace=wrap;html=1;fillColor=#BC6C25;strokeColor=#DDA15E;fontColor=#FEFAE0;" vertex="1" parent="1">
          <mxGeometry x="544.38" y="1780" width="125.62" height="20" as="geometry" />
        </mxCell>
      </root>
    </mxGraphModel>
  </diagram>
</mxfile>
